<svg width="62" height="62" viewBox="0 0 62 62" fill="none" xmlns="http://www.w3.org/2000/svg">
<path d="M9.53508 16.2543C13.1595 12.325 18.6439 10.3333 25.8333 10.3333H28.4167V17.6157L26.3397 18.0316C22.8005 18.7394 20.3386 20.1318 19.0211 22.1753C18.3334 23.276 17.9435 24.5365 17.8896 25.8333H25.8333C26.5185 25.8333 27.1756 26.1054 27.66 26.5899C28.1445 27.0744 28.4167 27.7314 28.4167 28.4166V46.4999C28.4167 49.3493 26.0994 51.6666 23.25 51.6666H7.75C7.06486 51.6666 6.40777 51.3944 5.92331 50.9099C5.43884 50.4255 5.16666 49.7684 5.16666 49.0833V36.1666L5.17441 28.6258C5.15116 28.3391 4.66033 21.5449 9.53508 16.2543ZM51.6667 51.6666H36.1667C35.4815 51.6666 34.8244 51.3944 34.34 50.9099C33.8555 50.4255 33.5833 49.7684 33.5833 49.0833V36.1666L33.5911 28.6258C33.5678 28.3391 33.077 21.5449 37.9517 16.2543C41.5762 12.325 47.0606 10.3333 54.25 10.3333H56.8333V17.6157L54.7563 18.0316C51.2172 18.7394 48.7552 20.1318 47.4378 22.1753C46.7501 23.276 46.3602 24.5365 46.3062 25.8333H54.25C54.9351 25.8333 55.5922 26.1054 56.0767 26.5899C56.5612 27.0744 56.8333 27.7314 56.8333 28.4166V46.4999C56.8333 49.3493 54.5161 51.6666 51.6667 51.6666Z" fill="#1DB954"/>
</svg>
